<svg width="16" height="16" viewBox="0 0 16 16" fill="none" xmlns="http://www.w3.org/2000/svg">
<path fill-rule="evenodd" clip-rule="evenodd" d="M3.23501 10.795C3.37957 10.9315 3.57245 11.0051 3.77122 10.9995C3.97 10.9938 4.1584 10.9095 4.29501 10.765L8.00001 6.842L11.705 10.765C11.8427 10.9047 12.0297 10.9849 12.2258 10.9884C12.422 10.9919 12.6117 10.9184 12.7543 10.7836C12.8968 10.6489 12.981 10.4637 12.9886 10.2676C12.9962 10.0716 12.9267 9.88039 12.795 9.735L8.54501 5.235C8.47491 5.16086 8.39042 5.10179 8.29671 5.06143C8.203 5.02106 8.10204 5.00024 8.00001 5.00024C7.89797 5.00024 7.79701 5.02106 7.7033 5.06143C7.60959 5.10179 7.52511 5.16086 7.45501 5.235L3.20501 9.735C3.06846 9.87956 2.99492 10.0724 3.00054 10.2712C3.00617 10.47 3.09051 10.6584 3.23501 10.795Z" fill="currentColor"/>
</svg>
